<?xml version='1.0' encoding='UTF-8'?>
<svg xmlns="http://www.w3.org/2000/svg" width="96" height="96" viewBox="0 0 96 96" role="img" aria-labelledby="cop-mark-title">
  <title id="cop-mark-title">Clinic Ops</title>
  <defs>
    <linearGradient id="cop-mark-top" x1="0%" y1="0%" x2="90%" y2="100%">
      <stop stop-color="#00E5D0"/>
      <stop offset="1" stop-color="#00B2B6"/>
    </linearGradient>
    <linearGradient id="cop-mark-right" x1="0%" y1="55%" x2="100%" y2="45%">
      <stop stop-color="#007F83"/>
      <stop offset="1" stop-color="#00D2B4"/>
    </linearGradient>
    <linearGradient id="cop-mark-bottom" x1="0%" y1="0%" x2="100%" y2="100%">
      <stop stop-color="#00C5CD"/>
      <stop offset="1" stop-color="#0099AC"/>
    </linearGradient>
    <linearGradient id="cop-mark-left" x1="0%" y1="15%" x2="100%" y2="90%">
      <stop stop-color="#00DAE8"/>
      <stop offset="1" stop-color="#00B2C0"/>
    </linearGradient>
    <linearGradient id="cop-mark-joint-top" x1="0%" y1="0%" x2="100%" y2="100%">
      <stop stop-color="#007D8E"/>
      <stop offset="1" stop-color="#004E63"/>
    </linearGradient>
    <linearGradient id="cop-mark-joint-bottom" x1="0%" y1="0%" x2="100%" y2="100%">
      <stop stop-color="#007C83"/>
      <stop offset="1" stop-color="#00565E"/>
    </linearGradient>
  </defs>
  <path d="M32 32V16C32 7.163 39.163 0 48 0C56.837 0 64 7.163 64 16V32H80C88.837 32 96 39.163 96 48C96 56.837 88.837 64 80 64H64V80C64 88.837 56.837 96 48 96C39.163 96 32 88.837 32 80V64H16C7.163 64 0 56.837 0 48C0 39.163 7.163 32 16 32ZM32 32H48C56.837 32 64 39.163 64 48V64H48C39.163 64 32 56.837 32 48Z" fill="#009DAA" fill-rule="evenodd"/>
  <path d="M32 32V16C32 7.163 39.163 0 48 0C56.837 0 64 7.163 64 16V32Z" fill="url(#cop-mark-top)"/>
  <path d="M64 32H80C88.837 32 96 39.163 96 48C96 56.837 88.837 64 80 64H64Z" fill="url(#cop-mark-right)"/>
  <path d="M32 64H64V80C64 88.837 56.837 96 48 96C39.163 96 32 88.837 32 80Z" fill="url(#cop-mark-bottom)"/>
  <path d="M32 32V64H16C7.163 64 0 56.837 0 48C0 39.163 7.163 32 16 32Z" fill="url(#cop-mark-left)"/>
  <path d="M48 32H64V48C64 39.163 56.837 32 48 32Z" fill="url(#cop-mark-joint-top)"/>
  <path d="M32 48C32 56.837 39.163 64 48 64H32Z" fill="url(#cop-mark-joint-bottom)"/>
</svg>
